<mxfile host="65bd71144e" modified="2020-10-22T18:39:56.741Z" agent="5.0 (Windows NT 10.0; Win64; x64) AppleWebKit/537.36 (KHTML, like Gecko) Code/1.49.2 Chrome/83.0.4103.122 Electron/9.2.1 Safari/537.36" etag="dMfEUD2BlC-ozJbND1lu" version="13.6.5">
    <diagram id="rAeyCYHqdwfexsLL6dYN" name="Page-1">
        <mxGraphModel dx="1116" dy="792" grid="1" gridSize="10" guides="1" tooltips="1" connect="1" arrows="1" fold="1" page="1" pageScale="1" pageWidth="1100" pageHeight="850" math="0" shadow="0">
            <root>
                <mxCell id="0"/>
                <mxCell id="1" parent="0"/>
                <mxCell id="3" value="" style="rounded=0;whiteSpace=wrap;html=1;" parent="1" vertex="1">
                    <mxGeometry x="180" y="160" width="680" height="480" as="geometry"/>
                </mxCell>
                <mxCell id="5" value="Stresser" style="html=1;shadow=0;dashed=0;fillColor=#343A40;strokeColor=none;fontSize=16;fontColor=#ffffff;align=left;spacing=15;fontStyle=1" parent="1" vertex="1">
                    <mxGeometry x="180" y="160" width="680" height="60" as="geometry"/>
                </mxCell>
                <mxCell id="6" value="Endpoints" style="fillColor=none;strokeColor=none;fontSize=14;align=center;fontColor=#9A9DA0;" parent="5" vertex="1">
                    <mxGeometry width="70" height="40" relative="1" as="geometry">
                        <mxPoint x="100" y="10" as="offset"/>
                    </mxGeometry>
                </mxCell>
                <mxCell id="7" value="Policy" style="fillColor=none;strokeColor=none;fontSize=14;fontColor=#9A9DA0;align=center;" parent="5" vertex="1">
                    <mxGeometry width="70" height="40" relative="1" as="geometry">
                        <mxPoint x="170" y="10" as="offset"/>
                    </mxGeometry>
                </mxCell>
                <mxCell id="8" value="Rules" style="fillColor=none;strokeColor=none;fontSize=14;align=center;spacingRight=0;fontColor=#FFFFFF;" parent="5" vertex="1">
                    <mxGeometry width="80" height="40" relative="1" as="geometry">
                        <mxPoint x="240" y="10" as="offset"/>
                    </mxGeometry>
                </mxCell>
                <mxCell id="9" value="Events" style="fillColor=none;strokeColor=none;fontSize=14;fontColor=#9A9DA0;align=center;" parent="5" vertex="1">
                    <mxGeometry width="80" height="40" relative="1" as="geometry">
                        <mxPoint x="320" y="10" as="offset"/>
                    </mxGeometry>
                </mxCell>
                <mxCell id="10" value="Logout" style="html=1;shadow=0;dashed=0;shape=mxgraph.bootstrap.rrect;rSize=5;fontSize=14;fontColor=#1CA5B8;strokeColor=#1CA5B8;fillColor=none;" parent="5" vertex="1">
                    <mxGeometry x="1" width="70" height="40" relative="1" as="geometry">
                        <mxPoint x="-80" y="10" as="offset"/>
                    </mxGeometry>
                </mxCell>
                <mxCell id="49" value="" style="html=1;shadow=0;dashed=0;shape=mxgraph.bootstrap.rrect;rSize=5;html=1;whiteSpace=wrap;" parent="1" vertex="1">
                    <mxGeometry x="222" y="269" width="240" height="291" as="geometry"/>
                </mxCell>
                <mxCell id="50" value="Rules" style="html=1;shadow=0;dashed=0;shape=mxgraph.bootstrap.topButton;rSize=5;strokeColor=none;fillColor=#0085FC;fontColor=#ffffff;perimeter=none;whiteSpace=wrap;resizeWidth=1;align=center;spacing=10;" parent="49" vertex="1">
                    <mxGeometry width="240" height="30" relative="1" as="geometry"/>
                </mxCell>
                <mxCell id="51" value="Fake VMware network adapter" style="strokeColor=inherit;fillColor=inherit;gradientColor=inherit;html=1;shadow=0;dashed=0;perimeter=none;whiteSpace=wrap;resizeWidth=1;align=left;spacing=10;fontColor=#9A9DA0;" parent="49" vertex="1">
                    <mxGeometry width="240" height="30" relative="1" as="geometry">
                        <mxPoint y="30" as="offset"/>
                    </mxGeometry>
                </mxCell>
                <mxCell id="52" value="Fake Sysinternals ProcExp process" style="strokeColor=inherit;fillColor=inherit;gradientColor=inherit;html=1;shadow=0;dashed=0;perimeter=none;whiteSpace=wrap;resizeWidth=1;align=left;spacing=10;fontColor=#9A9DA0;" parent="49" vertex="1">
                    <mxGeometry width="240" height="30" relative="1" as="geometry">
                        <mxPoint y="60" as="offset"/>
                    </mxGeometry>
                </mxCell>
                <mxCell id="53" value="Fake VBox MAC address" style="strokeColor=inherit;fillColor=inherit;gradientColor=inherit;fontColor=inherit;html=1;shadow=0;dashed=0;perimeter=none;whiteSpace=wrap;resizeWidth=1;align=left;spacing=10;fontStyle=1;fontSize=14;" parent="49" vertex="1">
                    <mxGeometry width="240" height="30" relative="1" as="geometry">
                        <mxPoint y="90" as="offset"/>
                    </mxGeometry>
                </mxCell>
                <mxCell id="54" value="" style="strokeColor=inherit;fillColor=inherit;gradientColor=inherit;fontColor=inherit;html=1;shadow=0;dashed=0;shape=mxgraph.bootstrap.bottomButton;rSize=5;perimeter=none;whiteSpace=wrap;resizeWidth=1;resizeHeight=0;align=left;spacing=10;" parent="49" vertex="1">
                    <mxGeometry y="1" width="240" height="30" relative="1" as="geometry">
                        <mxPoint y="-30" as="offset"/>
                    </mxGeometry>
                </mxCell>
                <mxCell id="55" value="Fake Defender .sys files" style="strokeColor=inherit;fillColor=inherit;gradientColor=inherit;html=1;shadow=0;dashed=0;perimeter=none;whiteSpace=wrap;resizeWidth=1;align=left;spacing=10;fontColor=#9A9DA0;" parent="49" vertex="1">
                    <mxGeometry y="121.00333333333332" width="240" height="32.33333333333333" as="geometry"/>
                </mxCell>
                <mxCell id="56" value="Fake Sysinternals ProcMon process" style="strokeColor=inherit;fillColor=inherit;gradientColor=inherit;html=1;shadow=0;dashed=0;perimeter=none;whiteSpace=wrap;resizeWidth=1;align=left;spacing=10;fontColor=#9A9DA0;" parent="49" vertex="1">
                    <mxGeometry y="153.33666666666664" width="240" height="32.33333333333333" as="geometry"/>
                </mxCell>
                <mxCell id="75" value="" style="html=1;verticalLabelPosition=bottom;align=center;labelBackgroundColor=#ffffff;verticalAlign=top;strokeWidth=2;strokeColor=#0080F0;shadow=0;dashed=0;shape=mxgraph.ios7.icons.add;fontColor=#FFFFFF;" vertex="1" parent="49">
                    <mxGeometry x="10" y="5" width="20" height="20" as="geometry"/>
                </mxCell>
                <mxCell id="85" value="" style="html=1;verticalLabelPosition=bottom;align=center;labelBackgroundColor=#ffffff;verticalAlign=top;strokeWidth=2;strokeColor=#0080F0;shadow=0;dashed=0;shape=mxgraph.ios7.icons.delete;fontSize=14;fontColor=#9A9DA0;" vertex="1" parent="49">
                    <mxGeometry x="40" y="5" width="20" height="20" as="geometry"/>
                </mxCell>
                <mxCell id="73" value="" style="html=1;shadow=0;dashed=0;fillColor=#343A40;strokeColor=none;fontSize=16;fontColor=#ffffff;align=left;spacing=15;fontStyle=1" parent="1" vertex="1">
                    <mxGeometry x="180" y="590" width="681" height="49" as="geometry"/>
                </mxCell>
                <mxCell id="74" value="Stresser" style="fillColor=none;strokeColor=none;fontSize=14;fontColor=#9A9DA0;align=center;spacingRight=0;" parent="73" vertex="1">
                    <mxGeometry width="80" height="40" relative="1" as="geometry">
                        <mxPoint x="300" y="3.5" as="offset"/>
                    </mxGeometry>
                </mxCell>
                <mxCell id="76" value="" style="html=1;shadow=0;dashed=0;shape=mxgraph.bootstrap.rrect;rSize=5;html=1;whiteSpace=wrap;" vertex="1" parent="1">
                    <mxGeometry x="560" y="270" width="270" height="240" as="geometry"/>
                </mxCell>
                <mxCell id="77" value="Description" style="html=1;shadow=0;dashed=0;shape=mxgraph.bootstrap.topButton;rSize=5;strokeColor=none;fillColor=#0085FC;fontColor=#ffffff;perimeter=none;whiteSpace=wrap;resizeWidth=1;align=center;spacing=10;" vertex="1" parent="76">
                    <mxGeometry width="270" height="30" relative="1" as="geometry"/>
                </mxCell>
                <mxCell id="78" value="Rule name: Fake VBox MAC address" style="strokeColor=inherit;fillColor=inherit;gradientColor=inherit;fontColor=inherit;html=1;shadow=0;dashed=0;perimeter=none;whiteSpace=wrap;resizeWidth=1;align=left;spacing=10;" vertex="1" parent="76">
                    <mxGeometry width="270" height="30" relative="1" as="geometry">
                        <mxPoint y="30" as="offset"/>
                    </mxGeometry>
                </mxCell>
                <mxCell id="79" value="Rule type: Registry" style="strokeColor=inherit;fillColor=inherit;gradientColor=inherit;fontColor=inherit;html=1;shadow=0;dashed=0;perimeter=none;whiteSpace=wrap;resizeWidth=1;align=left;spacing=10;" vertex="1" parent="76">
                    <mxGeometry width="270" height="30" relative="1" as="geometry">
                        <mxPoint y="60" as="offset"/>
                    </mxGeometry>
                </mxCell>
                <mxCell id="80" value="Rule value:&amp;nbsp;HKLM\SOFTWARE\Oracle\VirtualBox Guest Additions" style="strokeColor=inherit;fillColor=inherit;gradientColor=inherit;fontColor=inherit;html=1;shadow=0;dashed=0;perimeter=none;whiteSpace=wrap;resizeWidth=1;align=left;spacing=10;" vertex="1" parent="76">
                    <mxGeometry width="270" height="50" relative="1" as="geometry">
                        <mxPoint y="90" as="offset"/>
                    </mxGeometry>
                </mxCell>
                <mxCell id="82" value="Associated Policies: Development, Guests" style="strokeColor=inherit;fillColor=inherit;gradientColor=inherit;fontColor=inherit;html=1;shadow=0;dashed=0;perimeter=none;whiteSpace=wrap;resizeWidth=1;align=left;spacing=10;" vertex="1" parent="76">
                    <mxGeometry y="142.00333333333333" width="270" height="26.666666666666664" as="geometry"/>
                </mxCell>
                <mxCell id="83" value="Enforce type: Static" style="strokeColor=inherit;fillColor=inherit;gradientColor=inherit;fontColor=inherit;html=1;shadow=0;dashed=0;perimeter=none;whiteSpace=wrap;resizeWidth=1;align=left;spacing=10;" vertex="1" parent="76">
                    <mxGeometry y="168.67000000000002" width="270" height="26.666666666666664" as="geometry"/>
                </mxCell>
                <mxCell id="60" value="edit" style="rounded=1;html=1;shadow=0;dashed=0;whiteSpace=wrap;fontSize=10;fillColor=#666666;align=center;strokeColor=#4D4D4D;fontColor=#ffffff;arcSize=50;" parent="76" vertex="1">
                    <mxGeometry x="97.5" y="210" width="75" height="16.88" as="geometry"/>
                </mxCell>
                <mxCell id="84" value="" style="verticalLabelPosition=bottom;verticalAlign=top;html=1;shadow=0;dashed=0;strokeWidth=1;shape=mxgraph.android.quickscroll3;dy=0.5;fillColor=#33b5e5;strokeColor=#66D5F5;fontColor=#FFFFFF;" vertex="1" parent="1">
                    <mxGeometry x="210" y="270" width="2" height="290" as="geometry"/>
                </mxCell>
            </root>
        </mxGraphModel>
    </diagram>
</mxfile>